<mxfile host="app.diagrams.net" modified="2023-06-14T19:26:37.131Z" agent="Mozilla/5.0 (Windows NT 10.0; Win64; x64) AppleWebKit/537.36 (KHTML, like Gecko) Chrome/114.0.0.0 Safari/537.36" etag="h3Inta2oJs9_O-Em4n5y" version="21.3.8" type="device">
  <diagram name="Page-1" id="KLyaaYIGu-QFBhqOdwen">
    <mxGraphModel dx="1434" dy="990" grid="1" gridSize="10" guides="1" tooltips="1" connect="1" arrows="1" fold="1" page="1" pageScale="1" pageWidth="1400" pageHeight="800" math="0" shadow="0">
      <root>
        <mxCell id="0" />
        <mxCell id="1" parent="0" />
        <mxCell id="Lzt7si6OzmlEJwQBYVd8-1" value="Author" style="swimlane;childLayout=stackLayout;horizontal=1;startSize=50;horizontalStack=0;rounded=1;fontSize=14;fontStyle=0;strokeWidth=2;resizeParent=0;resizeLast=1;shadow=0;dashed=0;align=center;arcSize=4;whiteSpace=wrap;html=1;strokeColor=#FFFFFF;fontColor=#FFFFFF;fillColor=#182E3E;gradientColor=none;swimlaneFillColor=#666666;" vertex="1" parent="1">
          <mxGeometry x="120" y="40" width="160" height="100" as="geometry" />
        </mxCell>
        <mxCell id="Lzt7si6OzmlEJwQBYVd8-2" value="Name&amp;nbsp; &amp;nbsp; &amp;nbsp; &amp;nbsp; &amp;nbsp; &amp;nbsp; &amp;nbsp;CharField(15)" style="align=left;strokeColor=none;fillColor=none;spacingLeft=4;fontSize=12;verticalAlign=top;resizable=0;rotatable=0;part=1;html=1;fontColor=#FFFFFF;" vertex="1" parent="Lzt7si6OzmlEJwQBYVd8-1">
          <mxGeometry y="50" width="160" height="50" as="geometry" />
        </mxCell>
        <mxCell id="Lzt7si6OzmlEJwQBYVd8-5" style="edgeStyle=orthogonalEdgeStyle;rounded=0;orthogonalLoop=1;jettySize=auto;html=1;exitX=0.5;exitY=1;exitDx=0;exitDy=0;strokeColor=#23445D;" edge="1" parent="Lzt7si6OzmlEJwQBYVd8-1" source="Lzt7si6OzmlEJwQBYVd8-2" target="Lzt7si6OzmlEJwQBYVd8-2">
          <mxGeometry relative="1" as="geometry" />
        </mxCell>
        <mxCell id="Lzt7si6OzmlEJwQBYVd8-3" value="Article" style="swimlane;childLayout=stackLayout;horizontal=1;startSize=50;horizontalStack=0;rounded=1;fontSize=14;fontStyle=0;strokeWidth=2;resizeParent=0;resizeLast=1;shadow=0;dashed=0;align=center;arcSize=4;whiteSpace=wrap;html=1;strokeColor=#FFFFFF;fontColor=#FFFFFF;fillColor=#182E3E;gradientColor=none;swimlaneFillColor=#666666;" vertex="1" parent="1">
          <mxGeometry x="60" y="200" width="220" height="210" as="geometry" />
        </mxCell>
        <mxCell id="Lzt7si6OzmlEJwQBYVd8-4" value="title&amp;nbsp; &amp;nbsp; &amp;nbsp; &amp;nbsp; &amp;nbsp; &amp;nbsp; &amp;nbsp; &amp;nbsp; &amp;nbsp; &amp;nbsp; &amp;nbsp; &amp;nbsp; &amp;nbsp; &amp;nbsp; CharField(100)&lt;br&gt;area&amp;nbsp; &amp;nbsp; &amp;nbsp; &amp;nbsp; &amp;nbsp; &amp;nbsp; &amp;nbsp; &amp;nbsp; &amp;nbsp; &amp;nbsp; &amp;nbsp; &amp;nbsp; &amp;nbsp; CharField(15)&lt;br&gt;image&amp;nbsp; &amp;nbsp; &amp;nbsp; &amp;nbsp; &amp;nbsp; &amp;nbsp; &amp;nbsp; &amp;nbsp; &amp;nbsp; &amp;nbsp; &amp;nbsp; &amp;nbsp; ImageField&lt;br&gt;author&amp;nbsp; &amp;nbsp; &amp;nbsp; &amp;nbsp; &amp;nbsp; &amp;nbsp; &amp;nbsp; &amp;nbsp; &amp;nbsp; &amp;nbsp; &amp;nbsp; &amp;nbsp; ForeignKey&lt;br&gt;brief_description&amp;nbsp; &amp;nbsp; &amp;nbsp; &amp;nbsp; CharField(500)&lt;br&gt;Sub_title1&amp;nbsp; &amp;nbsp; &amp;nbsp; &amp;nbsp; &amp;nbsp; &amp;nbsp; &amp;nbsp; &amp;nbsp; &amp;nbsp; CharField(100)&lt;br&gt;description1&amp;nbsp; &amp;nbsp; &amp;nbsp; &amp;nbsp; &amp;nbsp; &amp;nbsp; &amp;nbsp; &amp;nbsp;CharField(1000)&lt;br&gt;Sub_title2&amp;nbsp; &amp;nbsp; &amp;nbsp; &amp;nbsp; &amp;nbsp; &amp;nbsp; &amp;nbsp; &amp;nbsp; &amp;nbsp; CharField(100)&lt;br&gt;description2&amp;nbsp; &amp;nbsp; &amp;nbsp; &amp;nbsp; &amp;nbsp; &amp;nbsp; &amp;nbsp; &amp;nbsp;CharField(1000)&lt;br&gt;date&amp;nbsp; &amp;nbsp; &amp;nbsp; &amp;nbsp; &amp;nbsp; &amp;nbsp; &amp;nbsp; &amp;nbsp; &amp;nbsp; &amp;nbsp; &amp;nbsp; &amp;nbsp; &amp;nbsp; &amp;nbsp; DateField" style="align=left;strokeColor=none;fillColor=none;spacingLeft=4;fontSize=12;verticalAlign=top;resizable=0;rotatable=0;part=1;html=1;fontColor=#FFFFFF;" vertex="1" parent="Lzt7si6OzmlEJwQBYVd8-3">
          <mxGeometry y="50" width="220" height="160" as="geometry" />
        </mxCell>
        <mxCell id="Lzt7si6OzmlEJwQBYVd8-6" value="" style="edgeStyle=orthogonalEdgeStyle;fontSize=12;html=1;endArrow=ERoneToMany;rounded=0;strokeColor=#23445D;exitX=0.994;exitY=0.175;exitDx=0;exitDy=0;exitPerimeter=0;entryX=1.003;entryY=0.153;entryDx=0;entryDy=0;strokeWidth=3;shadow=1;entryPerimeter=0;" edge="1" parent="1" source="Lzt7si6OzmlEJwQBYVd8-1" target="Lzt7si6OzmlEJwQBYVd8-3">
          <mxGeometry width="100" height="100" relative="1" as="geometry">
            <mxPoint x="390" y="570" as="sourcePoint" />
            <mxPoint x="490" y="470" as="targetPoint" />
            <Array as="points">
              <mxPoint x="330" y="57" />
              <mxPoint x="330" y="232" />
            </Array>
          </mxGeometry>
        </mxCell>
        <mxCell id="Lzt7si6OzmlEJwQBYVd8-7" value="Certification" style="swimlane;childLayout=stackLayout;horizontal=1;startSize=50;horizontalStack=0;rounded=1;fontSize=14;fontStyle=0;strokeWidth=2;resizeParent=0;resizeLast=1;shadow=0;dashed=0;align=center;arcSize=4;whiteSpace=wrap;html=1;strokeColor=#FFFFFF;fontColor=#FFFFFF;fillColor=#182E3E;gradientColor=none;swimlaneFillColor=#666666;" vertex="1" parent="1">
          <mxGeometry x="400" y="40" width="180" height="100" as="geometry" />
        </mxCell>
        <mxCell id="Lzt7si6OzmlEJwQBYVd8-8" value="certification&amp;nbsp; &amp;nbsp; &amp;nbsp; &amp;nbsp; &amp;nbsp; CharField(50)" style="align=left;strokeColor=none;fillColor=none;spacingLeft=4;fontSize=12;verticalAlign=top;resizable=0;rotatable=0;part=1;html=1;fontColor=#FFFFFF;" vertex="1" parent="Lzt7si6OzmlEJwQBYVd8-7">
          <mxGeometry y="50" width="180" height="50" as="geometry" />
        </mxCell>
        <mxCell id="Lzt7si6OzmlEJwQBYVd8-9" style="edgeStyle=orthogonalEdgeStyle;rounded=0;orthogonalLoop=1;jettySize=auto;html=1;exitX=0.5;exitY=1;exitDx=0;exitDy=0;strokeColor=#23445D;" edge="1" parent="Lzt7si6OzmlEJwQBYVd8-7" source="Lzt7si6OzmlEJwQBYVd8-8" target="Lzt7si6OzmlEJwQBYVd8-8">
          <mxGeometry relative="1" as="geometry" />
        </mxCell>
        <mxCell id="Lzt7si6OzmlEJwQBYVd8-10" value="OtherCourses" style="swimlane;childLayout=stackLayout;horizontal=1;startSize=50;horizontalStack=0;rounded=1;fontSize=14;fontStyle=0;strokeWidth=2;resizeParent=0;resizeLast=1;shadow=0;dashed=0;align=center;arcSize=4;whiteSpace=wrap;html=1;strokeColor=#FFFFFF;fontColor=#FFFFFF;fillColor=#182E3E;gradientColor=none;swimlaneFillColor=#666666;" vertex="1" parent="1">
          <mxGeometry x="400" y="170" width="180" height="100" as="geometry" />
        </mxCell>
        <mxCell id="Lzt7si6OzmlEJwQBYVd8-11" value="course&amp;nbsp; &amp;nbsp; &amp;nbsp; &amp;nbsp; &amp;nbsp; &amp;nbsp; &amp;nbsp; &amp;nbsp; &amp;nbsp; CharField(50)" style="align=left;strokeColor=none;fillColor=none;spacingLeft=4;fontSize=12;verticalAlign=top;resizable=0;rotatable=0;part=1;html=1;fontColor=#FFFFFF;" vertex="1" parent="Lzt7si6OzmlEJwQBYVd8-10">
          <mxGeometry y="50" width="180" height="50" as="geometry" />
        </mxCell>
        <mxCell id="Lzt7si6OzmlEJwQBYVd8-12" style="edgeStyle=orthogonalEdgeStyle;rounded=0;orthogonalLoop=1;jettySize=auto;html=1;exitX=0.5;exitY=1;exitDx=0;exitDy=0;strokeColor=#23445D;" edge="1" parent="Lzt7si6OzmlEJwQBYVd8-10" source="Lzt7si6OzmlEJwQBYVd8-11" target="Lzt7si6OzmlEJwQBYVd8-11">
          <mxGeometry relative="1" as="geometry" />
        </mxCell>
        <mxCell id="Lzt7si6OzmlEJwQBYVd8-13" value="Academic" style="swimlane;childLayout=stackLayout;horizontal=1;startSize=50;horizontalStack=0;rounded=1;fontSize=14;fontStyle=0;strokeWidth=2;resizeParent=0;resizeLast=1;shadow=0;dashed=0;align=center;arcSize=4;whiteSpace=wrap;html=1;strokeColor=#FFFFFF;fontColor=#FFFFFF;fillColor=#182E3E;gradientColor=none;swimlaneFillColor=#666666;" vertex="1" parent="1">
          <mxGeometry x="400" y="310" width="180" height="100" as="geometry" />
        </mxCell>
        <mxCell id="Lzt7si6OzmlEJwQBYVd8-14" value="academic&amp;nbsp; &amp;nbsp; &amp;nbsp; &amp;nbsp; &amp;nbsp; &amp;nbsp; &amp;nbsp;CharField(50)" style="align=left;strokeColor=none;fillColor=none;spacingLeft=4;fontSize=12;verticalAlign=top;resizable=0;rotatable=0;part=1;html=1;fontColor=#FFFFFF;" vertex="1" parent="Lzt7si6OzmlEJwQBYVd8-13">
          <mxGeometry y="50" width="180" height="50" as="geometry" />
        </mxCell>
        <mxCell id="Lzt7si6OzmlEJwQBYVd8-15" style="edgeStyle=orthogonalEdgeStyle;rounded=0;orthogonalLoop=1;jettySize=auto;html=1;exitX=0.5;exitY=1;exitDx=0;exitDy=0;strokeColor=#23445D;" edge="1" parent="Lzt7si6OzmlEJwQBYVd8-13" source="Lzt7si6OzmlEJwQBYVd8-14" target="Lzt7si6OzmlEJwQBYVd8-14">
          <mxGeometry relative="1" as="geometry" />
        </mxCell>
        <mxCell id="Lzt7si6OzmlEJwQBYVd8-16" value="Teacher" style="swimlane;childLayout=stackLayout;horizontal=1;startSize=50;horizontalStack=0;rounded=1;fontSize=14;fontStyle=0;strokeWidth=2;resizeParent=0;resizeLast=1;shadow=0;dashed=0;align=center;arcSize=4;whiteSpace=wrap;html=1;strokeColor=#FFFFFF;fontColor=#FFFFFF;fillColor=#182E3E;gradientColor=none;swimlaneFillColor=#666666;" vertex="1" parent="1">
          <mxGeometry x="730" y="40" width="180" height="100" as="geometry" />
        </mxCell>
        <mxCell id="Lzt7si6OzmlEJwQBYVd8-17" value="name&amp;nbsp; &amp;nbsp; &amp;nbsp; &amp;nbsp; &amp;nbsp; CharField(50)&lt;br&gt;link&amp;nbsp; &amp;nbsp; &amp;nbsp; &amp;nbsp; &amp;nbsp; &amp;nbsp; &amp;nbsp; URLField" style="align=left;strokeColor=none;fillColor=none;spacingLeft=4;fontSize=12;verticalAlign=top;resizable=0;rotatable=0;part=1;html=1;fontColor=#FFFFFF;" vertex="1" parent="Lzt7si6OzmlEJwQBYVd8-16">
          <mxGeometry y="50" width="180" height="50" as="geometry" />
        </mxCell>
        <mxCell id="Lzt7si6OzmlEJwQBYVd8-18" style="edgeStyle=orthogonalEdgeStyle;rounded=0;orthogonalLoop=1;jettySize=auto;html=1;exitX=0.5;exitY=1;exitDx=0;exitDy=0;strokeColor=#23445D;" edge="1" parent="Lzt7si6OzmlEJwQBYVd8-16" source="Lzt7si6OzmlEJwQBYVd8-17" target="Lzt7si6OzmlEJwQBYVd8-17">
          <mxGeometry relative="1" as="geometry" />
        </mxCell>
        <mxCell id="Lzt7si6OzmlEJwQBYVd8-19" value="Curricular_Unit" style="swimlane;childLayout=stackLayout;horizontal=1;startSize=50;horizontalStack=0;rounded=1;fontSize=14;fontStyle=0;strokeWidth=2;resizeParent=0;resizeLast=1;shadow=0;dashed=0;align=center;arcSize=4;whiteSpace=wrap;html=1;strokeColor=#FFFFFF;fontColor=#FFFFFF;fillColor=#182E3E;gradientColor=none;swimlaneFillColor=#666666;" vertex="1" parent="1">
          <mxGeometry x="670" y="212.5" width="240" height="197.5" as="geometry" />
        </mxCell>
        <mxCell id="Lzt7si6OzmlEJwQBYVd8-20" value="curricular_unit&amp;nbsp; &amp;nbsp; &amp;nbsp; &amp;nbsp; &amp;nbsp; &amp;nbsp;CharField(50)&lt;br&gt;link&amp;nbsp; &amp;nbsp; &amp;nbsp; &amp;nbsp; &amp;nbsp; &amp;nbsp; &amp;nbsp; &amp;nbsp; &amp;nbsp; &amp;nbsp; &amp;nbsp; &amp;nbsp; &amp;nbsp; &amp;nbsp; URLField&lt;br&gt;year&amp;nbsp; &amp;nbsp; &amp;nbsp; &amp;nbsp; &amp;nbsp; &amp;nbsp; &amp;nbsp; &amp;nbsp; &amp;nbsp; &amp;nbsp; &amp;nbsp; &amp;nbsp; &amp;nbsp; &amp;nbsp;CharField(5)&lt;br&gt;semester&amp;nbsp; &amp;nbsp; &amp;nbsp; &amp;nbsp; &amp;nbsp; &amp;nbsp; &amp;nbsp; &amp;nbsp; &amp;nbsp; &amp;nbsp;CharField(5)&lt;br&gt;ects&amp;nbsp; &amp;nbsp; &amp;nbsp; &amp;nbsp; &amp;nbsp; &amp;nbsp; &amp;nbsp; &amp;nbsp; &amp;nbsp; &amp;nbsp; &amp;nbsp; &amp;nbsp; &amp;nbsp; &amp;nbsp; IntergerField&lt;br&gt;resp_Teacher&amp;nbsp; &amp;nbsp; &amp;nbsp; &amp;nbsp; &amp;nbsp; &amp;nbsp; ForeignKey&lt;br&gt;additional_Teacher&amp;nbsp; &amp;nbsp; ForeignKey&lt;br&gt;ranking&amp;nbsp; &amp;nbsp; &amp;nbsp; &amp;nbsp; &amp;nbsp; &amp;nbsp; &amp;nbsp; &amp;nbsp; &amp;nbsp; &amp;nbsp; &amp;nbsp; PositiveIntegerField&lt;br&gt;academic&amp;nbsp; &amp;nbsp; &amp;nbsp; &amp;nbsp; &amp;nbsp; &amp;nbsp; &amp;nbsp; &amp;nbsp; &amp;nbsp; &amp;nbsp;ForeignKey" style="align=left;strokeColor=none;fillColor=none;spacingLeft=4;fontSize=12;verticalAlign=top;resizable=0;rotatable=0;part=1;html=1;fontColor=#FFFFFF;" vertex="1" parent="Lzt7si6OzmlEJwQBYVd8-19">
          <mxGeometry y="50" width="240" height="147.5" as="geometry" />
        </mxCell>
        <mxCell id="Lzt7si6OzmlEJwQBYVd8-21" value="Project" style="swimlane;childLayout=stackLayout;horizontal=1;startSize=50;horizontalStack=0;rounded=1;fontSize=14;fontStyle=0;strokeWidth=2;resizeParent=0;resizeLast=1;shadow=0;dashed=0;align=center;arcSize=4;whiteSpace=wrap;html=1;strokeColor=#FFFFFF;fontColor=#FFFFFF;fillColor=#182E3E;gradientColor=none;swimlaneFillColor=#666666;" vertex="1" parent="1">
          <mxGeometry x="700" y="470" width="210" height="127.25" as="geometry" />
        </mxCell>
        <mxCell id="Lzt7si6OzmlEJwQBYVd8-22" value="title&amp;nbsp; &amp;nbsp; &amp;nbsp; &amp;nbsp; &amp;nbsp; &amp;nbsp; &amp;nbsp; &amp;nbsp; &amp;nbsp; &amp;nbsp; &amp;nbsp; &amp;nbsp; &amp;nbsp; &amp;nbsp; CharField(50)&lt;br&gt;curricular_unit&amp;nbsp; &amp;nbsp; &amp;nbsp; &amp;nbsp; &amp;nbsp; &amp;nbsp;CharField(50)&lt;br&gt;description&amp;nbsp; &amp;nbsp; &amp;nbsp; &amp;nbsp; &amp;nbsp; &amp;nbsp; &amp;nbsp; &amp;nbsp; CharField(500)&lt;br&gt;image&amp;nbsp; &amp;nbsp; &amp;nbsp; &amp;nbsp; &amp;nbsp; &amp;nbsp; &amp;nbsp; &amp;nbsp; &amp;nbsp; &amp;nbsp; &amp;nbsp; &amp;nbsp; ImageField" style="align=left;strokeColor=none;fillColor=none;spacingLeft=4;fontSize=12;verticalAlign=top;resizable=0;rotatable=0;part=1;html=1;fontColor=#FFFFFF;" vertex="1" parent="Lzt7si6OzmlEJwQBYVd8-21">
          <mxGeometry y="50" width="210" height="77.25" as="geometry" />
        </mxCell>
        <mxCell id="Lzt7si6OzmlEJwQBYVd8-23" value="Subject" style="swimlane;childLayout=stackLayout;horizontal=1;startSize=50;horizontalStack=0;rounded=1;fontSize=14;fontStyle=0;strokeWidth=2;resizeParent=0;resizeLast=1;shadow=0;dashed=0;align=center;arcSize=4;whiteSpace=wrap;html=1;strokeColor=#FFFFFF;fontColor=#FFFFFF;fillColor=#182E3E;gradientColor=none;swimlaneFillColor=#666666;" vertex="1" parent="1">
          <mxGeometry x="1070" y="40" width="210" height="100" as="geometry" />
        </mxCell>
        <mxCell id="Lzt7si6OzmlEJwQBYVd8-24" value="name&amp;nbsp; &amp;nbsp; &amp;nbsp; &amp;nbsp; &amp;nbsp; &amp;nbsp; &amp;nbsp; &amp;nbsp; &amp;nbsp; &amp;nbsp; &amp;nbsp; &amp;nbsp; &amp;nbsp; CharField(30)&lt;br&gt;description&amp;nbsp; &amp;nbsp; &amp;nbsp; &amp;nbsp; &amp;nbsp; &amp;nbsp; &amp;nbsp; &amp;nbsp; CharField(500)&lt;br&gt;" style="align=left;strokeColor=none;fillColor=none;spacingLeft=4;fontSize=12;verticalAlign=top;resizable=0;rotatable=0;part=1;html=1;fontColor=#FFFFFF;" vertex="1" parent="Lzt7si6OzmlEJwQBYVd8-23">
          <mxGeometry y="50" width="210" height="50" as="geometry" />
        </mxCell>
        <mxCell id="Lzt7si6OzmlEJwQBYVd8-25" value="Tech_backend" style="swimlane;childLayout=stackLayout;horizontal=1;startSize=50;horizontalStack=0;rounded=1;fontSize=14;fontStyle=0;strokeWidth=2;resizeParent=0;resizeLast=1;shadow=0;dashed=0;align=center;arcSize=4;whiteSpace=wrap;html=1;strokeColor=#FFFFFF;fontColor=#FFFFFF;fillColor=#182E3E;gradientColor=none;swimlaneFillColor=#666666;" vertex="1" parent="1">
          <mxGeometry x="1060" y="180" width="220" height="166" as="geometry" />
        </mxCell>
        <mxCell id="Lzt7si6OzmlEJwQBYVd8-26" value="name&amp;nbsp; &amp;nbsp; &amp;nbsp; &amp;nbsp; &amp;nbsp; &amp;nbsp; &amp;nbsp; &amp;nbsp; &amp;nbsp; &amp;nbsp; &amp;nbsp;CharField(10)&lt;br&gt;release_year&amp;nbsp; &amp;nbsp; &amp;nbsp; &amp;nbsp; &amp;nbsp;PositiveIntegerField&lt;br&gt;author&amp;nbsp; &amp;nbsp; &amp;nbsp; &amp;nbsp; &amp;nbsp; &amp;nbsp; &amp;nbsp; &amp;nbsp; &amp;nbsp; &amp;nbsp; CharField(50)&lt;br&gt;logo&amp;nbsp; &amp;nbsp; &amp;nbsp; &amp;nbsp; &amp;nbsp; &amp;nbsp; &amp;nbsp; &amp;nbsp; &amp;nbsp; &amp;nbsp; &amp;nbsp; &amp;nbsp; ImageField&lt;br&gt;website_link&amp;nbsp; &amp;nbsp; &amp;nbsp; &amp;nbsp; &amp;nbsp; &amp;nbsp;URLField&lt;br&gt;description&amp;nbsp; &amp;nbsp; &amp;nbsp; &amp;nbsp; &amp;nbsp; &amp;nbsp; &amp;nbsp;CharField(50)&lt;br&gt;subject&amp;nbsp; &amp;nbsp; &amp;nbsp; &amp;nbsp; &amp;nbsp; &amp;nbsp; &amp;nbsp; &amp;nbsp; &amp;nbsp; &amp;nbsp; ForeignKey" style="align=left;strokeColor=none;fillColor=none;spacingLeft=4;fontSize=12;verticalAlign=top;resizable=0;rotatable=0;part=1;html=1;fontColor=#FFFFFF;" vertex="1" parent="Lzt7si6OzmlEJwQBYVd8-25">
          <mxGeometry y="50" width="220" height="116" as="geometry" />
        </mxCell>
        <mxCell id="Lzt7si6OzmlEJwQBYVd8-27" value="Tech_frontend" style="swimlane;childLayout=stackLayout;horizontal=1;startSize=50;horizontalStack=0;rounded=1;fontSize=14;fontStyle=0;strokeWidth=2;resizeParent=0;resizeLast=1;shadow=0;dashed=0;align=center;arcSize=4;whiteSpace=wrap;html=1;strokeColor=#FFFFFF;fontColor=#FFFFFF;fillColor=#182E3E;gradientColor=none;swimlaneFillColor=#666666;" vertex="1" parent="1">
          <mxGeometry x="1060" y="390" width="220" height="166" as="geometry" />
        </mxCell>
        <mxCell id="Lzt7si6OzmlEJwQBYVd8-28" value="name&amp;nbsp; &amp;nbsp; &amp;nbsp; &amp;nbsp; &amp;nbsp; &amp;nbsp; &amp;nbsp; &amp;nbsp; &amp;nbsp; &amp;nbsp; &amp;nbsp;CharField(10)&lt;br&gt;release_year&amp;nbsp; &amp;nbsp; &amp;nbsp; &amp;nbsp; &amp;nbsp;PositiveIntegerField&lt;br&gt;author&amp;nbsp; &amp;nbsp; &amp;nbsp; &amp;nbsp; &amp;nbsp; &amp;nbsp; &amp;nbsp; &amp;nbsp; &amp;nbsp; &amp;nbsp; CharField(50)&lt;br&gt;logo&amp;nbsp; &amp;nbsp; &amp;nbsp; &amp;nbsp; &amp;nbsp; &amp;nbsp; &amp;nbsp; &amp;nbsp; &amp;nbsp; &amp;nbsp; &amp;nbsp; &amp;nbsp; ImageField&lt;br&gt;website_link&amp;nbsp; &amp;nbsp; &amp;nbsp; &amp;nbsp; &amp;nbsp; &amp;nbsp;URLField&lt;br&gt;description&amp;nbsp; &amp;nbsp; &amp;nbsp; &amp;nbsp; &amp;nbsp; &amp;nbsp; &amp;nbsp;CharField(50)&lt;br&gt;subject&amp;nbsp; &amp;nbsp; &amp;nbsp; &amp;nbsp; &amp;nbsp; &amp;nbsp; &amp;nbsp; &amp;nbsp; &amp;nbsp; &amp;nbsp; ForeignKey" style="align=left;strokeColor=none;fillColor=none;spacingLeft=4;fontSize=12;verticalAlign=top;resizable=0;rotatable=0;part=1;html=1;fontColor=#FFFFFF;" vertex="1" parent="Lzt7si6OzmlEJwQBYVd8-27">
          <mxGeometry y="50" width="220" height="116" as="geometry" />
        </mxCell>
        <mxCell id="Lzt7si6OzmlEJwQBYVd8-29" value="Tech_Other" style="swimlane;childLayout=stackLayout;horizontal=1;startSize=50;horizontalStack=0;rounded=1;fontSize=14;fontStyle=0;strokeWidth=2;resizeParent=0;resizeLast=1;shadow=0;dashed=0;align=center;arcSize=4;whiteSpace=wrap;html=1;strokeColor=#FFFFFF;fontColor=#FFFFFF;fillColor=#182E3E;gradientColor=none;swimlaneFillColor=#666666;" vertex="1" parent="1">
          <mxGeometry x="1065" y="610" width="220" height="166" as="geometry" />
        </mxCell>
        <mxCell id="Lzt7si6OzmlEJwQBYVd8-30" value="name&amp;nbsp; &amp;nbsp; &amp;nbsp; &amp;nbsp; &amp;nbsp; &amp;nbsp; &amp;nbsp; &amp;nbsp; &amp;nbsp; &amp;nbsp; &amp;nbsp;CharField(10)&lt;br&gt;release_year&amp;nbsp; &amp;nbsp; &amp;nbsp; &amp;nbsp; &amp;nbsp;PositiveIntegerField&lt;br&gt;author&amp;nbsp; &amp;nbsp; &amp;nbsp; &amp;nbsp; &amp;nbsp; &amp;nbsp; &amp;nbsp; &amp;nbsp; &amp;nbsp; &amp;nbsp; CharField(50)&lt;br&gt;logo&amp;nbsp; &amp;nbsp; &amp;nbsp; &amp;nbsp; &amp;nbsp; &amp;nbsp; &amp;nbsp; &amp;nbsp; &amp;nbsp; &amp;nbsp; &amp;nbsp; &amp;nbsp; ImageField&lt;br&gt;website_link&amp;nbsp; &amp;nbsp; &amp;nbsp; &amp;nbsp; &amp;nbsp; &amp;nbsp;URLField&lt;br&gt;description&amp;nbsp; &amp;nbsp; &amp;nbsp; &amp;nbsp; &amp;nbsp; &amp;nbsp; &amp;nbsp;CharField(50)&lt;br&gt;subject&amp;nbsp; &amp;nbsp; &amp;nbsp; &amp;nbsp; &amp;nbsp; &amp;nbsp; &amp;nbsp; &amp;nbsp; &amp;nbsp; &amp;nbsp; ForeignKey" style="align=left;strokeColor=none;fillColor=none;spacingLeft=4;fontSize=12;verticalAlign=top;resizable=0;rotatable=0;part=1;html=1;fontColor=#FFFFFF;" vertex="1" parent="Lzt7si6OzmlEJwQBYVd8-29">
          <mxGeometry y="50" width="220" height="116" as="geometry" />
        </mxCell>
        <mxCell id="Lzt7si6OzmlEJwQBYVd8-32" value="" style="edgeStyle=orthogonalEdgeStyle;fontSize=12;html=1;endArrow=ERoneToMany;rounded=0;strokeColor=#23445D;exitX=1;exitY=0.25;exitDx=0;exitDy=0;entryX=0;entryY=0.135;entryDx=0;entryDy=0;strokeWidth=3;shadow=1;entryPerimeter=0;startArrow=ERone;startFill=0;" edge="1" parent="1" source="Lzt7si6OzmlEJwQBYVd8-13" target="Lzt7si6OzmlEJwQBYVd8-19">
          <mxGeometry width="100" height="100" relative="1" as="geometry">
            <mxPoint x="540" y="470" as="sourcePoint" />
            <mxPoint x="651" y="505" as="targetPoint" />
          </mxGeometry>
        </mxCell>
        <mxCell id="Lzt7si6OzmlEJwQBYVd8-34" value="" style="edgeStyle=entityRelationEdgeStyle;fontSize=12;html=1;endArrow=ERmany;rounded=0;strokeColor=#23445D;exitX=1;exitY=0.159;exitDx=0;exitDy=0;entryX=1;entryY=0.25;entryDx=0;entryDy=0;strokeWidth=3;shadow=1;exitPerimeter=0;endFill=0;startArrow=ERmany;startFill=0;" edge="1" parent="1" source="Lzt7si6OzmlEJwQBYVd8-19" target="Lzt7si6OzmlEJwQBYVd8-16">
          <mxGeometry width="100" height="100" relative="1" as="geometry">
            <mxPoint x="1030" y="270" as="sourcePoint" />
            <mxPoint x="1120" y="174" as="targetPoint" />
          </mxGeometry>
        </mxCell>
        <mxCell id="Lzt7si6OzmlEJwQBYVd8-35" value="" style="edgeStyle=orthogonalEdgeStyle;fontSize=12;html=1;endArrow=ERoneToMany;rounded=0;strokeColor=#23445D;strokeWidth=3;shadow=1;startArrow=ERone;startFill=0;entryX=1.011;entryY=0.182;entryDx=0;entryDy=0;entryPerimeter=0;exitX=1;exitY=0.25;exitDx=0;exitDy=0;" edge="1" parent="1" source="Lzt7si6OzmlEJwQBYVd8-23" target="Lzt7si6OzmlEJwQBYVd8-25">
          <mxGeometry width="100" height="100" relative="1" as="geometry">
            <mxPoint x="1070" y="730" as="sourcePoint" />
            <mxPoint x="970" y="640" as="targetPoint" />
            <Array as="points">
              <mxPoint x="1340" y="65" />
              <mxPoint x="1340" y="210" />
            </Array>
          </mxGeometry>
        </mxCell>
        <mxCell id="Lzt7si6OzmlEJwQBYVd8-37" value="" style="edgeStyle=orthogonalEdgeStyle;fontSize=12;html=1;endArrow=ERoneToMany;rounded=0;strokeColor=#23445D;strokeWidth=3;shadow=1;startArrow=ERone;startFill=0;entryX=1;entryY=0.25;entryDx=0;entryDy=0;exitX=1;exitY=0.25;exitDx=0;exitDy=0;" edge="1" parent="1" source="Lzt7si6OzmlEJwQBYVd8-23" target="Lzt7si6OzmlEJwQBYVd8-29">
          <mxGeometry width="100" height="100" relative="1" as="geometry">
            <mxPoint x="1090" y="920" as="sourcePoint" />
            <mxPoint x="912" y="600" as="targetPoint" />
            <Array as="points">
              <mxPoint x="1340" y="65" />
              <mxPoint x="1340" y="651" />
            </Array>
          </mxGeometry>
        </mxCell>
        <mxCell id="Lzt7si6OzmlEJwQBYVd8-38" value="" style="edgeStyle=orthogonalEdgeStyle;fontSize=12;html=1;endArrow=ERoneToMany;rounded=0;strokeColor=#23445D;strokeWidth=3;shadow=1;startArrow=ERone;startFill=0;entryX=0.998;entryY=0.147;entryDx=0;entryDy=0;entryPerimeter=0;exitX=1;exitY=0.25;exitDx=0;exitDy=0;" edge="1" parent="1" source="Lzt7si6OzmlEJwQBYVd8-23" target="Lzt7si6OzmlEJwQBYVd8-27">
          <mxGeometry width="100" height="100" relative="1" as="geometry">
            <mxPoint x="1370" y="90" as="sourcePoint" />
            <mxPoint x="1370" y="656" as="targetPoint" />
            <Array as="points">
              <mxPoint x="1340" y="65" />
              <mxPoint x="1340" y="414" />
            </Array>
          </mxGeometry>
        </mxCell>
      </root>
    </mxGraphModel>
  </diagram>
</mxfile>
